# xmcd CD database file
#
# Track frame offsets:
#	150
#	12355
#	26366
#	39784
#	56840
#	70366
#	83401
#	96818
#	110925
#	124417
#	136684
#	150372
#	164979
#
# Disc length: 2384 seconds
#
# Revision: 0
# Processed by: cddbd v1.5.2PL0 Copyright (c) Steve Scherf et al.
# Submitted via: CDex 1.51
#
DISCID=a7094e0d
DTITLE=Charlie Parker - Charlie Parker Meets Miles Davis
DYEAR=2006
DGENRE=Jazz
TTITLE0=Charlie's Wig
TTITLE1=Bird of Paradise
TTITLE2=Quasimodo
TTITLE3=Embraceable You
TTITLE4=Moose the Moochie Mooche
TTITLE5=Drifting On a Reed
TTITLE6=Scrapple From the Apple
TTITLE7=Klactoveedsedstene
TTITLE8=A Night At Tunisia
TTITLE9=Don't Blame Me
TTITLE10=Dewey Square
TTITLE11=My Old Flame
TTITLE12=Crazyology
EXTD=YEAR: 2006
EXTT0=
EXTT1=
EXTT2=
EXTT3=
EXTT4=
EXTT5=
EXTT6=
EXTT7=
EXTT8=
EXTT9=
EXTT10=
EXTT11=
EXTT12=
PLAYORDER=
